<?xml version="1.0" encoding="UTF-8"?>
<svg version="1.1" xmlns="http://www.w3.org/2000/svg" width="505" height="368">
<path d="M0 0 C166.65 0 333.3 0 505 0 C505 121.44 505 242.88 505 368 C338.35 368 171.7 368 0 368 C0 246.56 0 125.12 0 0 Z " fill="#E5E5E5" transform="translate(0,0)"/>
<path d="M0 0 C39.93 0 79.86 0 121 0 C121 7.59 121 15.18 121 23 C120.34 23 119.68 23 119 23 C118.690625 21.96875 118.38125 20.9375 118.0625 19.875 C115.48195873 13.93375383 110.00761985 11.33526063 104.31640625 8.80859375 C91.57992272 3.91272561 78.48743777 2.92016001 64.9609375 2.68359375 C64.06673096 2.66494263 63.17252441 2.6462915 62.2512207 2.6270752 C58.95923301 2.559558 55.66710718 2.49891563 52.375 2.4375 C41.299375 2.2209375 41.299375 2.2209375 30 2 C30 23.12 30 44.24 30 66 C25.05 66 20.1 66 15 66 C14.98018066 64.69442139 14.96036133 63.38884277 14.93994141 62.04370117 C14.86331251 57.15501068 14.77468781 52.26659585 14.68261719 47.37817383 C14.64456237 45.27080771 14.60967056 43.16338181 14.578125 41.0559082 C14.53195959 38.00971244 14.47405527 34.96391997 14.4140625 31.91796875 C14.40251129 30.99042282 14.39096008 30.06287689 14.37905884 29.10722351 C14.29599767 17.16101809 14.29599767 17.16101809 9.8125 6.4375 C6.44915451 3.52260057 4.30925503 2.84495197 0 2 C0 1.34 0 0.68 0 0 Z " fill="#090909" transform="translate(82,86)"/>
<path d="M0 0 C9.24 0 18.48 0 28 0 C28.845625 1.835625 29.69125 3.67125 30.5625 5.5625 C38.12407563 21.98963237 38.12407563 21.98963237 46.09375 38.22094727 C48.98280248 43.9183739 51.74909409 49.672247 54.5 55.4375 C54.94625732 56.36941162 55.39251465 57.30132324 55.85229492 58.26147461 C56.2619751 59.12264893 56.67165527 59.98382324 57.09375 60.87109375 C57.46177734 61.64380615 57.82980469 62.41651855 58.20898438 63.21264648 C59 65 59 65 59 66 C53.39 66 47.78 66 42 66 C41.21496094 64.29714844 40.42992187 62.59429687 39.62109375 60.83984375 C36.41703766 53.89185398 33.20976347 46.94535491 30 40 C29.61231445 39.16098145 29.22462891 38.32196289 28.82519531 37.45751953 C27.90618505 35.47079618 26.9849956 33.48510687 26.0625 31.5 C25.33740234 29.93765625 25.33740234 29.93765625 24.59765625 28.34375 C22.45847978 23.86664716 20.21903248 19.43806496 18 15 C17.67 31.83 17.34 48.66 17 66 C16.67 66 16.34 66 16 66 C15.970271 64.39898437 15.970271 64.39898437 15.93994141 62.765625 C15.86264249 58.72473395 15.77414192 54.68414643 15.68261719 50.64355469 C15.64483142 48.90989262 15.60990108 47.17616545 15.578125 45.44238281 C15.41543782 36.66744281 15.16602503 27.91707483 14.2109375 19.1875 C14.0773584 17.96417969 13.9437793 16.74085937 13.80615234 15.48046875 C12.83094612 11.27012958 11.37988712 8.60068003 9 5 C6.72220273 3.56702529 6.72220273 3.56702529 4.25 3.0625 C3.45078125 2.84722656 2.6515625 2.63195312 1.828125 2.41015625 C1.22484375 2.27480469 0.6215625 2.13945313 0 2 C0 1.34 0 0.68 0 0 Z " fill="#060606" transform="translate(262,86)"/>
<path d="M0 0 C1.25159912 0.00523682 2.50319824 0.01047363 3.79272461 0.01586914 C4.78942421 0.01799156 4.78942421 0.01799156 5.80625916 0.02015686 C7.93590735 0.02577021 10.06545175 0.03832485 12.19506836 0.05102539 C13.63582205 0.05603868 15.07657739 0.06060188 16.51733398 0.06469727 C20.05577938 0.07574394 23.59416375 0.09301747 27.13256836 0.11352539 C27.13256836 0.77352539 27.13256836 1.43352539 27.13256836 2.11352539 C25.89506836 2.34040039 24.65756836 2.56727539 23.38256836 2.80102539 C20.43659449 3.56479639 19.17831361 4.07396193 16.82006836 6.11352539 C12.49411901 13.80410201 11.67767318 21.68803385 11.62084961 30.37133789 C11.60289841 31.40040253 11.5849472 32.42946716 11.56645203 33.48971558 C11.51276999 36.73927858 11.47858913 39.98869833 11.44506836 43.23852539 C11.41185809 45.45729515 11.37736507 47.6760461 11.34155273 49.89477539 C11.25706801 55.30092128 11.19005726 60.70702778 11.13256836 66.11352539 C6.51256836 66.11352539 1.89256836 66.11352539 -2.86743164 66.11352539 C-2.86743164 47.30352539 -2.86743164 28.49352539 -2.86743164 9.11352539 C-3.52743164 9.11352539 -4.18743164 9.11352539 -4.86743164 9.11352539 C-5.02260254 10.09289062 -5.02260254 10.09289062 -5.1809082 11.09204102 C-6.0732556 15.01938502 -7.44510791 18.68840692 -8.85180664 22.45727539 C-9.14927795 23.2628186 -9.44674927 24.06836182 -9.75323486 24.89831543 C-10.7045011 27.47135051 -11.6609852 30.04241205 -12.61743164 32.61352539 C-13.24535758 34.31132308 -13.87296479 36.0092387 -14.50024414 37.70727539 C-17.88975109 46.86868181 -21.32847469 56.00864197 -24.86743164 65.11352539 C-25.85743164 65.11352539 -26.84743164 65.11352539 -27.86743164 65.11352539 C-26.45380378 61.15410036 -25.03596701 57.1961946 -23.61743164 53.23852539 C-23.22168945 52.12993164 -22.82594727 51.02133789 -22.41821289 49.87915039 C-20.36211672 44.1490463 -18.23700528 38.46527152 -15.94799805 32.82446289 C-14.62599505 29.50780648 -13.36290927 26.16996083 -12.10571289 22.82836914 C-11.86708527 22.19491577 -11.62845764 21.5614624 -11.38259888 20.90881348 C-10.39414946 18.28316832 -9.40693328 15.65707073 -8.42285156 13.02978516 C-7.69453306 11.08673629 -6.96288469 9.14496868 -6.23071289 7.20336914 C-5.80056885 6.05731201 -5.3704248 4.91125488 -4.92724609 3.73046875 C-3.47214567 0.13746681 -3.47214567 0.13746681 0 0 Z " fill="#020202" transform="translate(407.867431640625,85.886474609375)"/>
<path d="M0 0 C4.62 0 9.24 0 14 0 C14.04898437 1.91941406 14.09796875 3.83882812 14.1484375 5.81640625 C13.00459648 30.44267512 13.00459648 30.44267512 21.8125 51.8125 C24.51428386 53.27918267 26.9632982 53.65492025 30 54 C30 54.66 30 55.32 30 56 C14.82 56 -0.36 56 -16 56 C-16 55.34 -16 54.68 -16 54 C-15.38511719 53.84144531 -14.77023437 53.68289062 -14.13671875 53.51953125 C-9.09272811 52.10725157 -9.09272811 52.10725157 -5.0625 48.9375 C-1.39666297 38.80253881 -1.38656176 28.02174863 -0.875 17.375 C-0.78843455 15.68616323 -0.70120041 13.99736059 -0.61328125 12.30859375 C-0.40114175 8.20608212 -0.19805986 4.10321447 0 0 Z " fill="#030303" transform="translate(405,199)"/>
<path d="M0 0 C4.62 0 9.24 0 14 0 C14.06058594 2.27777344 14.12117188 4.55554688 14.18359375 6.90234375 C14.24560501 9.136501 14.30890011 11.37061851 14.37231445 13.60473633 C14.41532019 15.14376199 14.45701529 16.68282491 14.49731445 18.22192383 C14.01266883 35.48480643 14.01266883 35.48480643 20 51 C22.9083697 52.57954561 25.75617012 53.39698034 29 54 C29 54.66 29 55.32 29 56 C14.15 56 -0.7 56 -16 56 C-16 55.34 -16 54.68 -16 54 C-15.39671875 53.87625 -14.7934375 53.7525 -14.171875 53.625 C-9.25719504 52.40185508 -9.25719504 52.40185508 -5.546875 49.16015625 C-3.26324521 44.58437566 -1.95185108 40.07800877 -1.70288086 34.96582031 C-1.66291489 34.18531311 -1.62294891 33.40480591 -1.58177185 32.60064697 C-1.54318558 31.76821472 -1.5045993 30.93578247 -1.46484375 30.078125 C-1.42186661 29.21813904 -1.37888947 28.35815308 -1.33460999 27.47210693 C-1.19851087 24.73157335 -1.06793462 21.99080845 -0.9375 19.25 C-0.84606734 17.38930498 -0.75427469 15.52862762 -0.66210938 13.66796875 C-0.43723195 9.1121733 -0.21730656 4.5561626 0 0 Z " fill="#020202" transform="translate(98,199)"/>
<path d="M0 0 C5.61 0 11.22 0 17 0 C18.50709211 3.10090182 20.00587892 6.20535631 21.5 9.3125 C21.92925781 10.19357422 22.35851562 11.07464844 22.80078125 11.98242188 C23.40986328 13.25375977 23.40986328 13.25375977 24.03125 14.55078125 C24.40830078 15.33106689 24.78535156 16.11135254 25.17382812 16.9152832 C26 19 26 19 26 22 C26.66 22 27.32 22 28 22 C28.226875 20.783125 28.45375 19.56625 28.6875 18.3125 C30.07862675 11.95596464 32.56385319 6.01598086 35 0 C35.66 0 36.32 0 37 0 C35.79757474 6.0681137 34.16228249 11.75835487 31.9609375 17.53515625 C31.67521881 18.29928329 31.38950012 19.06341034 31.09512329 19.85069275 C30.19400557 22.25677172 29.28467167 24.65964381 28.375 27.0625 C27.75726297 28.70747603 27.14007056 30.35265669 26.5234375 31.99804688 C25.0219014 36.00108764 23.51299584 40.00127727 22 44 C19 43 19 43 17.91792297 41.38137817 C17.42161629 40.33238846 17.42161629 40.33238846 16.9152832 39.26220703 C16.53511551 38.47113556 16.15494781 37.68006409 15.76325989 36.86502075 C15.36314194 36.00464203 14.96302399 35.14426331 14.55078125 34.2578125 C13.92456123 32.93884476 13.92456123 32.93884476 13.28569031 31.5932312 C12.40422231 29.73097255 11.52779358 27.86632164 10.65600586 25.99951172 C9.31869958 23.13826438 7.96444505 20.28553394 6.60742188 17.43359375 C5.75419057 15.62547992 4.90194377 13.81690112 4.05078125 12.0078125 C3.64459061 11.15148224 3.23839996 10.29515198 2.81990051 9.41287231 C2.4491893 8.61549652 2.07847809 7.81812073 1.6965332 6.99658203 C1.20380669 5.94520554 1.20380669 5.94520554 0.7011261 4.87258911 C0 3 0 3 0 0 Z " fill="#040404" transform="translate(327,199)"/>
<path d="M0 0 C0.66 0 1.32 0 2 0 C2.04898437 1.01578125 2.09796875 2.0315625 2.1484375 3.078125 C2.97733559 18.9491995 4.0225599 37.11041399 16 49 C20.33125831 52.42099386 24.60775647 53.55981685 30 54 C30 54.66 30 55.32 30 56 C14.82 56 -0.36 56 -16 56 C-16 55.34 -16 54.68 -16 54 C-15.09507812 53.79697266 -15.09507812 53.79697266 -14.171875 53.58984375 C-13.37265625 53.37457031 -12.5734375 53.15929687 -11.75 52.9375 C-10.56664062 52.64166016 -10.56664062 52.64166016 -9.359375 52.33984375 C-5.92478234 50.38940454 -4.48704752 47.5313972 -3 44 C-2.12800676 40.77873696 -2.12800676 40.77873696 -1.8125 37.3125 C-1.73918457 36.66474609 -1.66586914 36.01699219 -1.59033203 35.34960938 C-0.40776692 23.62404173 -0.30526161 11.7736673 0 0 Z " fill="#060606" transform="translate(278,199)"/>
<path d="M0 0 C3.4375 2 3.4375 2 6 5 C6.74640732 7.82609184 6.68717509 10.16540277 6 13 C4.20636089 15.8100346 2.98119065 17.50940468 0 19 C-4.18144011 19.39447548 -6.30946048 19.45035186 -9.875 17.125 C-12.77371342 14.22628658 -12.95733329 13.37180992 -13.4375 9.1875 C-13.38347254 5.4798656 -13.03761463 5.04403664 -10.4375 2 C-6.41711329 -0.33913408 -4.56914233 -0.81591827 0 0 Z " fill="#E0E0E0" transform="translate(392,165)"/>
<path d="M0 0 C11.25 -0.40178571 11.25 -0.40178571 15 3 C14.835 3.78375 14.67 4.5675 14.5 5.375 C13.9376293 7.88208039 13.9376293 7.88208039 14 10 C14.66 10.66 15.32 11.32 16 12 C15.8125 14.5 15.8125 14.5 15 17 C10.25368713 20.16420858 5.63243123 19.12112755 0 19 C0 12.73 0 6.46 0 0 Z " fill="#262626" transform="translate(411,165)"/>
<path d="M0 0 C0.99 0 1.98 0 3 0 C5.64 5.94 8.28 11.88 11 18 C10.01 18 9.02 18 8 18 C7.67 16.68 7.34 15.36 7 14 C3.37 14 -0.26 14 -4 14 C-4.66 15.65 -5.32 17.3 -6 19 C-6.66 18.67 -7.32 18.34 -8 18 C-5.36 12.06 -2.72 6.12 0 0 Z " fill="#393939" transform="translate(145,165)"/>
<path d="M0 0 C3.78570414 1.26190138 4.21831571 2.54855815 6.1875 5.9375 C6.71730469 6.83339844 7.24710937 7.72929687 7.79296875 8.65234375 C9 11 9 11 9 13 C12.44523879 9.90442723 14.35034378 6.07915953 16.59765625 2.08203125 C17.06042969 1.39496094 17.52320313 0.70789063 18 0 C18.66 0 19.32 0 20 0 C20 6.27 20 12.54 20 19 C19.34 19 18.68 19 18 19 C17.505 12.565 17.505 12.565 17 6 C14.03 10.95 14.03 10.95 11 16 C6.18088483 14.39362828 5.29335557 10.4007634 3 6 C2.67 10.29 2.34 14.58 2 19 C1.34 19 0.68 19 0 19 C0 12.73 0 6.46 0 0 Z " fill="#2A2A2A" transform="translate(346,165)"/>
<path d="M0 0 C0.66 0.33 1.32 0.66 2 1 C-0.01721616 8.07534161 -2.38645356 14.9493607 -5.01171875 21.8203125 C-5.38480667 22.80498505 -5.75789459 23.78965759 -6.14228821 24.8041687 C-7.32080153 27.91234758 -8.50406434 31.01869242 -9.6875 34.125 C-10.49315478 36.24727581 -11.2984963 38.36967057 -12.10351562 40.4921875 C-14.06539332 45.6628381 -16.03116117 50.83199628 -18 56 C-18.99 56 -19.98 56 -21 56 C-19.58637214 52.04057497 -18.16853537 48.08266921 -16.75 44.125 C-16.35425781 43.01640625 -15.95851563 41.9078125 -15.55078125 40.765625 C-13.46544702 34.9540378 -11.31225302 29.18678193 -8.99121094 23.46533203 C-7.17983065 18.96008125 -5.47167243 14.41511397 -3.75 9.875 C-3.38648438 8.91851562 -3.02296875 7.96203125 -2.6484375 6.9765625 C-1.76485082 4.6513344 -0.88204944 2.32581157 0 0 Z " fill="#373737" transform="translate(401,95)"/>
<path d="M0 0 C3.4375 2 3.4375 2 6 5 C6.74640732 7.82609184 6.68717509 10.16540277 6 13 C4.20636089 15.8100346 2.98119065 17.50940468 0 19 C-4.18144011 19.39447548 -6.30946048 19.45035186 -9.875 17.125 C-12.77371342 14.22628658 -12.95733329 13.37180992 -13.4375 9.1875 C-13.38347254 5.4798656 -13.03761463 5.04403664 -10.4375 2 C-6.41711329 -0.33913408 -4.56914233 -0.81591827 0 0 Z M-9.4375 3.5625 C-11.60396028 6.94217804 -11.56288002 9.05983987 -11 13 C-9.58333333 15.58333333 -9.58333333 15.58333333 -7 17 C-3.05983987 17.56288002 -0.94217804 17.60396028 2.4375 15.4375 C4.60396028 12.05782196 4.56288002 9.94016013 4 6 C2.58333333 3.41666667 2.58333333 3.41666667 0 2 C-3.94016013 1.43711998 -6.05782196 1.39603972 -9.4375 3.5625 Z " fill="#202020" transform="translate(392,165)"/>
<path d="M0 0 C0.33 0 0.66 0 1 0 C1 2.97 1 5.94 1 9 C4.96 9 8.92 9 13 9 C13 6.03 13 3.06 13 0 C13.66 0 14.32 0 15 0 C15 6.27 15 12.54 15 19 C14.34 19 13.68 19 13 19 C13 16.36 13 13.72 13 11 C9.37 11 5.74 11 2 11 C2 13.64 2 16.28 2 19 C1.34 19 0.68 19 0 19 C0 12.73 0 6.46 0 0 Z " fill="#232323" transform="translate(193,165)"/>
<path d="M0 0 C0.80824219 0.11085937 1.61648437 0.22171875 2.44921875 0.3359375 C3.37154297 0.47902344 3.37154297 0.47902344 4.3125 0.625 C4.3125 1.285 4.3125 1.945 4.3125 2.625 C1.3425 2.625 -1.6275 2.625 -4.6875 2.625 C-5.3475 3.945 -6.0075 5.265 -6.6875 6.625 C-5.98882812 6.81835938 -5.29015625 7.01171875 -4.5703125 7.2109375 C-3.66023437 7.47132813 -2.75015625 7.73171875 -1.8125 8 C-0.90757812 8.25523437 -0.00265625 8.51046875 0.9296875 8.7734375 C3.3125 9.625 3.3125 9.625 5.3125 11.625 C5.125 14.125 5.125 14.125 4.3125 16.625 C0.61763897 19.08824069 -1.32043092 19.01491688 -5.6875 18.625 C-6.6775 17.635 -7.6675 16.645 -8.6875 15.625 C-5.3875 15.625 -2.0875 15.625 1.3125 15.625 C1.3125 14.305 1.3125 12.985 1.3125 11.625 C0.75820312 11.43164062 0.20390625 11.23828125 -0.3671875 11.0390625 C-1.09164062 10.77867187 -1.81609375 10.51828125 -2.5625 10.25 C-3.64144531 9.86714844 -3.64144531 9.86714844 -4.7421875 9.4765625 C-6.6875 8.625 -6.6875 8.625 -8.6875 6.625 C-8.5 4.125 -8.5 4.125 -7.6875 1.625 C-4.33422361 -0.61051759 -3.78006343 -0.54783528 0 0 Z " fill="#262626" transform="translate(174.6875,165.375)"/>
<path d="M0 0 C1.45792884 -0.05399736 2.91642712 -0.09279177 4.375 -0.125 C5.18710937 -0.14820313 5.99921875 -0.17140625 6.8359375 -0.1953125 C9 0 9 0 11 2 C10.46428571 5.53571429 10.46428571 5.53571429 9 7 C7.48071962 7.07179964 5.95832518 7.08392007 4.4375 7.0625 C3.61121094 7.05347656 2.78492188 7.04445312 1.93359375 7.03515625 C1.29550781 7.02355469 0.65742188 7.01195312 0 7 C0 4.69 0 2.38 0 0 Z " fill="#DDDDDD" transform="translate(413,167)"/>
<path d="M0 0 C3.96 0 7.92 0 12 0 C12 0.66 12 1.32 12 2 C8.7 2 5.4 2 2 2 C2 4.31 2 6.62 2 9 C4.97 9 7.94 9 11 9 C11 9.66 11 10.32 11 11 C7.7 11 4.4 11 1 11 C1 13.64 1 16.28 1 19 C0.67 19 0.34 19 0 19 C0 12.73 0 6.46 0 0 Z " fill="#272727" transform="translate(91,165)"/>
<path d="M0 0 C2 2 2 2 2.125 5.625 C2.08375 6.73875 2.0425 7.8525 2 9 C4.97 9 7.94 9 11 9 C11 9.33 11 9.66 11 10 C8.03 10 5.06 10 2 10 C2 12.31 2 14.62 2 17 C5.63 17 9.26 17 13 17 C12.67 17.66 12.34 18.32 12 19 C8.04 19 4.08 19 0 19 C0 12.73 0 6.46 0 0 Z " fill="#1F1F1F" transform="translate(411,165)"/>
<path d="M0 0 C3.3 0 6.6 0 10 0 C10.38218767 1.65614657 10.71395102 3.32457024 11 5 C10 6 10 6 7.71484375 6.09765625 C6.34005859 6.08025391 6.34005859 6.08025391 4.9375 6.0625 C4.01839844 6.05347656 3.09929687 6.04445312 2.15234375 6.03515625 C1.44207031 6.02355469 0.73179687 6.01195312 0 6 C0 4.02 0 2.04 0 0 Z " fill="#E3E3E3" transform="translate(413,176)"/>
<path d="M0 0 C0.66 0 1.32 0 2 0 C2 5.61 2 11.22 2 17 C5.3 17 8.6 17 12 17 C12 17.66 12 18.32 12 19 C8.04 19 4.08 19 0 19 C0 12.73 0 6.46 0 0 Z " fill="#232323" transform="translate(116,165)"/>
<path d="M0 0 C0.33 0.99 0.66 1.98 1 3 C0.34 4.32 -0.32 5.64 -1 7 C1.97 7 4.94 7 8 7 C8 6.34 8 5.68 8 5 C8.66 5 9.32 5 10 5 C10.99 7.64 11.98 10.28 13 13 C12.01 12.67 11.02 12.34 10 12 C9.67 10.68 9.34 9.36 9 8 C5.37 8 1.74 8 -2 8 C-2.66 9.65 -3.32 11.3 -4 13 C-4.66 12.67 -5.32 12.34 -6 12 C-4.02 8.04 -2.04 4.08 0 0 Z " fill="#1B1B1B" transform="translate(143,171)"/>
<path d="M0 0 C0.66 0 1.32 0 2 0 C0.56006454 7.72329019 -2.05532446 14.7282249 -5 22 C-5.66 21.67 -6.32 21.34 -7 21 C-4.96192707 13.8821847 -2.59655258 6.93292719 0 0 Z " fill="#242424" transform="translate(362,199)"/>
<path d="M0 0 C2.52259061 1.97420135 2.9929808 2.96745642 3.6875 6.1875 C3.790625 7.115625 3.89375 8.04375 4 9 C1.69 9 -0.62 9 -3 9 C-2.5020163 5.26512223 -2.12508244 3.18762365 0 0 Z " fill="#D4D4D4" transform="translate(146,168)"/>
<path d="M0 0 C0.66 0 1.32 0 2 0 C1.39124245 4.60416626 0.15277044 8.56483324 -1.5625 12.875 C-2.01753906 14.02742187 -2.47257812 15.17984375 -2.94140625 16.3671875 C-3.46541016 17.67042969 -3.46541016 17.67042969 -4 19 C-4.99 19 -5.98 19 -7 19 C-4.69 12.73 -2.38 6.46 0 0 Z " fill="#2E2E2E" transform="translate(387,132)"/>
<path d="M0 0 C-0.33 1.65 -0.66 3.3 -1 5 C-1.99 5 -2.98 5 -4 5 C-4 3.35 -4 1.7 -4 0 C-7.3 -0.33 -10.6 -0.66 -14 -1 C-14 -1.33 -14 -1.66 -14 -2 C-4.58997722 -3.70159453 -4.58997722 -3.70159453 0 0 Z " fill="#404040" transform="translate(427,177)"/>
<path d="M0 0 C0.33 1.32 0.66 2.64 1 4 C-1.5853343 6.48192093 -2.92643811 6.99225664 -6.5625 7.375 C-10.25831771 6.97181989 -10.70457142 6.63730092 -13 4 C-12.31292969 4.01160156 -11.62585938 4.02320313 -10.91796875 4.03515625 C-9.56638672 4.04869141 -9.56638672 4.04869141 -8.1875 4.0625 C-6.84751953 4.07990234 -6.84751953 4.07990234 -5.48046875 4.09765625 C-2.86586209 4.11009967 -2.86586209 4.11009967 0 3 C0 2.01 0 1.02 0 0 Z " fill="#2D2D2D" transform="translate(179,177)"/>
<path d="M0 0 C1.1171875 1.640625 1.1171875 1.640625 2 4 C1.3203125 6.796875 1.3203125 6.796875 0.125 9.75 C-0.26429688 10.73484375 -0.65359375 11.7196875 -1.0546875 12.734375 C-1.36664063 13.48203125 -1.67859375 14.2296875 -2 15 C-2.66 14.67 -3.32 14.34 -4 14 C-3.36843005 8.94744036 -1.86540627 4.70406799 0 0 Z " fill="#3F3F3F" transform="translate(392,118)"/>
<path d="M0 0 C2 2 2 2 2.125 5.625 C2.08375 6.73875 2.0425 7.8525 2 9 C4.97 9 7.94 9 11 9 C11 9.33 11 9.66 11 10 C7.37 10.33 3.74 10.66 0 11 C0 7.37 0 3.74 0 0 Z " fill="#101010" transform="translate(411,165)"/>
<path d="M0 0 C0.66 0.33 1.32 0.66 2 1 C1.54965877 2.62723299 1.08944646 4.25173664 0.625 5.875 C0.36976563 6.77992187 0.11453125 7.68484375 -0.1484375 8.6171875 C-1 11 -1 11 -3 13 C-2.52060632 8.28596212 -2.03165952 4.33420699 0 0 Z " fill="#292929" transform="translate(401,95)"/>
<path d="M0 0 C0.66 0 1.32 0 2 0 C1.34 2.97 0.68 5.94 0 9 C-0.66 8.67 -1.32 8.34 -2 8 C-1.125 2.25 -1.125 2.25 0 0 Z " fill="#363636" transform="translate(362,199)"/>
<path d="M0 0 C2.31 0.33 4.62 0.66 7 1 C7.33 2.65 7.66 4.3 8 6 C7.608125 5.54625 7.21625 5.0925 6.8125 4.625 C4.69167513 2.72357081 2.66957765 1.93795972 0 1 C0 0.67 0 0.34 0 0 Z " fill="#131313" transform="translate(171,174)"/>
</svg>
